REM DIRINDEX 1\2,1\3,1\4
REM DIRNAME cjc153,folder01,folder02,folder03
TITLE ""
FILE "Track28.mp3" MP3
  TRACK 01 AUDIO
    TITLE "0:"
    INDEX 01 00:00:00
  TRACK 02 AUDIO
    TITLE "4:cjc153_1720"
    INDEX 01 00:00:07
  TRACK 03 AUDIO
    TITLE "0:"
    INDEX 01 00:02:04
  TRACK 04 AUDIO
    TITLE "2:cjc153_1721"
    INDEX 01 00:02:61
  TRACK 05 AUDIO
    TITLE "0:"
    INDEX 01 00:04:01
  TRACK 06 AUDIO
    TITLE "3:cjc153_1722"
    INDEX 01 00:04:33
  TRACK 07 AUDIO
    TITLE "0:"
    INDEX 01 00:05:54
  TRACK 08 AUDIO
    TITLE "2:cjc153_1723"
    INDEX 01 00:06:24
  TRACK 09 AUDIO
    TITLE "0:"
    INDEX 01 00:07:00
  TRACK 10 AUDIO
    TITLE "3:cjc153_1724"
    INDEX 01 00:07:43
  TRACK 11 AUDIO
    TITLE "0:"
    INDEX 01 00:08:19
  TRACK 12 AUDIO
    TITLE "2:cjc153_1725"
    INDEX 01 00:09:02
  TRACK 13 AUDIO
    TITLE "0:"
    INDEX 01 00:10:04
  TRACK 14 AUDIO
    TITLE "3:cjc153_1726"
    INDEX 01 00:10:35
  TRACK 15 AUDIO
    TITLE "0:"
    INDEX 01 00:11:44
  TRACK 16 AUDIO
    TITLE "2:cjc153_1727"
    INDEX 01 00:12:12
  TRACK 17 AUDIO
    TITLE "0:"
    INDEX 01 00:13:12
  TRACK 18 AUDIO
    TITLE "3:cjc153_1728"
    INDEX 01 00:13:43
  TRACK 19 AUDIO
    TITLE "0:"
    INDEX 01 00:14:49
  TRACK 20 AUDIO
    TITLE "2:cjc153_1729"
    INDEX 01 00:15:19
  TRACK 21 AUDIO
    TITLE "0:"
    INDEX 01 00:16:30
  TRACK 22 AUDIO
    TITLE "3:cjc153_1730"
    INDEX 01 00:16:61
  TRACK 23 AUDIO
    TITLE "0:"
    INDEX 01 00:18:03
  TRACK 24 AUDIO
    TITLE "2:cjc153_1731"
    INDEX 01 00:18:48
  TRACK 25 AUDIO
    TITLE "0:"
    INDEX 01 00:19:52
  TRACK 26 AUDIO
    TITLE "3:cjc153_1732"
    INDEX 01 00:20:08
  TRACK 27 AUDIO
    TITLE "0:"
    INDEX 01 00:21:17
  TRACK 28 AUDIO
    TITLE "2:cjc153_1733"
    INDEX 01 00:21:60
  TRACK 29 AUDIO
    TITLE "0:"
    INDEX 01 00:23:04
  TRACK 30 AUDIO
    TITLE "3:cjc153_1734"
    INDEX 01 00:23:36
  TRACK 31 AUDIO
    TITLE "0:"
    INDEX 01 00:24:53
  TRACK 32 AUDIO
    TITLE "2:cjc153_1735"
    INDEX 01 00:25:23
  TRACK 33 AUDIO
    TITLE "0:"
    INDEX 01 00:26:28
  TRACK 34 AUDIO
    TITLE "3:cjc153_1736"
    INDEX 01 00:26:60
  TRACK 35 AUDIO
    TITLE "0:"
    INDEX 01 00:27:67
  TRACK 36 AUDIO
    TITLE "2:cjc153_1737"
    INDEX 01 00:28:35
  TRACK 37 AUDIO
    TITLE "0:"
    INDEX 01 00:29:42
  TRACK 38 AUDIO
    TITLE "3:cjc153_1738"
    INDEX 01 00:29:74
  TRACK 39 AUDIO
    TITLE "0:"
    INDEX 01 00:31:14
  TRACK 40 AUDIO
    TITLE "2:cjc153_1739"
    INDEX 01 00:31:59
  TRACK 41 AUDIO
    TITLE "0:"
    INDEX 01 00:32:70
  TRACK 42 AUDIO
    TITLE "3:cjc153_1740"
    INDEX 01 00:33:28
  TRACK 43 AUDIO
    TITLE "0:"
    INDEX 01 00:34:47
  TRACK 44 AUDIO
    TITLE "2:cjc153_1741"
    INDEX 01 00:35:17
  TRACK 45 AUDIO
    TITLE "0:"
    INDEX 01 00:36:17
  TRACK 46 AUDIO
    TITLE "3:cjc153_1742"
    INDEX 01 00:36:48
  TRACK 47 AUDIO
    TITLE "0:"
    INDEX 01 00:37:50
  TRACK 48 AUDIO
    TITLE "2:cjc153_1743"
    INDEX 01 00:38:20
  TRACK 49 AUDIO
    TITLE "0:"
    INDEX 01 00:39:21
  TRACK 50 AUDIO
    TITLE "3:cjc153_1744"
    INDEX 01 00:39:52
  TRACK 51 AUDIO
    TITLE "0:"
    INDEX 01 00:40:60
  TRACK 52 AUDIO
    TITLE "2:cjc153_1745"
    INDEX 01 00:41:28
  TRACK 53 AUDIO
    TITLE "0:"
    INDEX 01 00:42:43
  TRACK 54 AUDIO
    TITLE "3:cjc153_1746"
    INDEX 01 00:43:01
  TRACK 55 AUDIO
    TITLE "0:"
    INDEX 01 00:44:20
  TRACK 56 AUDIO
    TITLE "2:cjc153_1747"
    INDEX 01 00:44:65
  TRACK 57 AUDIO
    TITLE "0:"
    INDEX 01 00:45:73
  TRACK 58 AUDIO
    TITLE "3:cjc153_1748"
    INDEX 01 00:46:29
  TRACK 59 AUDIO
    TITLE "0:"
    INDEX 01 00:47:40
  TRACK 60 AUDIO
    TITLE "2:cjc153_1749"
    INDEX 01 00:48:10
  TRACK 61 AUDIO
    TITLE "0:"
    INDEX 01 00:49:27
  TRACK 62 AUDIO
    TITLE "3:cjc153_1750"
    INDEX 01 00:49:59
  TRACK 63 AUDIO
    TITLE "0:"
    INDEX 01 00:51:07
  TRACK 64 AUDIO
    TITLE "2:cjc153_1751"
    INDEX 01 00:51:50
  TRACK 65 AUDIO
    TITLE "0:"
    INDEX 01 00:52:51
  TRACK 66 AUDIO
    TITLE "3:cjc153_1752"
    INDEX 01 00:53:08
  TRACK 67 AUDIO
    TITLE "0:"
    INDEX 01 00:54:15
  TRACK 68 AUDIO
    TITLE "2:cjc153_1753"
    INDEX 01 00:54:60
  TRACK 69 AUDIO
    TITLE "0:"
    INDEX 01 00:55:44
  TRACK 70 AUDIO
    TITLE "3:cjc153_1754"
    INDEX 01 00:56:18
  TRACK 71 AUDIO
    TITLE "0:"
    INDEX 01 00:57:09
  TRACK 72 AUDIO
    TITLE "2:cjc153_1755"
    INDEX 01 00:58:01
  TRACK 73 AUDIO
    TITLE "0:"
    INDEX 01 00:59:22
  TRACK 74 AUDIO
    TITLE "3:cjc153_1756"
    INDEX 01 00:59:53
  TRACK 75 AUDIO
    TITLE "0:"
    INDEX 01 01:01:05
  TRACK 76 AUDIO
    TITLE "2:cjc153_1757"
    INDEX 01 01:01:48
  TRACK 77 AUDIO
    TITLE "0:"
    INDEX 01 01:02:71
  TRACK 78 AUDIO
    TITLE "3:cjc153_1758"
    INDEX 01 01:03:27
  TRACK 79 AUDIO
    TITLE "0:"
    INDEX 01 01:04:58
  TRACK 80 AUDIO
    TITLE "2:cjc153_1759"
    INDEX 01 01:05:28
  TRACK 81 AUDIO
    TITLE "0:"
    INDEX 01 01:06:57
  TRACK 82 AUDIO
    TITLE "3:cjc153_1760"
    INDEX 01 01:07:14
  TRACK 83 AUDIO
    TITLE "0:"
    INDEX 01 01:08:48
  TRACK 84 AUDIO
    TITLE "2:cjc153_1761"
    INDEX 01 01:09:18
  TRACK 85 AUDIO
    TITLE "0:"
    INDEX 01 01:10:30
  TRACK 86 AUDIO
    TITLE "3:cjc153_1762"
    INDEX 01 01:10:61
  TRACK 87 AUDIO
    TITLE "0:"
    INDEX 01 01:12:09
  TRACK 88 AUDIO
    TITLE "2:cjc153_1763"
    INDEX 01 01:12:54
  TRACK 89 AUDIO
    TITLE "0:"
    INDEX 01 01:13:69
  TRACK 90 AUDIO
    TITLE "3:cjc153_1764"
    INDEX 01 01:14:25
  TRACK 91 AUDIO
    TITLE "0:"
    INDEX 01 01:15:46
  TRACK 92 AUDIO
    TITLE "2:cjc153_1765"
    INDEX 01 01:16:16
  TRACK 93 AUDIO
    TITLE "0:"
    INDEX 01 01:17:32
  TRACK 94 AUDIO
    TITLE "3:cjc153_1766"
    INDEX 01 01:17:63
  TRACK 95 AUDIO
    TITLE "0:"
    INDEX 01 01:19:05
  TRACK 96 AUDIO
    TITLE "2:cjc153_1767"
    INDEX 01 01:19:50
  TRACK 97 AUDIO
    TITLE "0:"
    INDEX 01 01:20:71
  TRACK 98 AUDIO
    TITLE "3:cjc153_1768"
    INDEX 01 01:21:27
  TRACK 99 AUDIO
    TITLE "0:"
    INDEX 01 01:22:52
  TRACK 100 AUDIO
    TITLE "2:cjc153_1769"
    INDEX 01 01:23:20
  TRACK 101 AUDIO
    TITLE "0:"
    INDEX 01 01:24:43
  TRACK 102 AUDIO
    TITLE "3:cjc153_1770"
    INDEX 01 01:24:73
  TRACK 103 AUDIO
    TITLE "0:"
    INDEX 01 01:26:21
  TRACK 104 AUDIO
    TITLE "2:cjc153_1771"
    INDEX 01 01:26:68
  TRACK 105 AUDIO
    TITLE "0:"
    INDEX 01 01:28:14
  TRACK 106 AUDIO
    TITLE "3:cjc153_1772"
    INDEX 01 01:28:45
  TRACK 107 AUDIO
    TITLE "0:"
    INDEX 01 01:29:72
  TRACK 108 AUDIO
    TITLE "2:cjc153_1773"
    INDEX 01 01:30:40
  TRACK 109 AUDIO
    TITLE "0:"
    INDEX 01 01:31:57
  TRACK 110 AUDIO
    TITLE "3:cjc153_1774"
    INDEX 01 01:32:15
  TRACK 111 AUDIO
    TITLE "0:"
    INDEX 01 01:33:38
  TRACK 112 AUDIO
    TITLE "2:cjc153_1775"
    INDEX 01 01:34:08
  TRACK 113 AUDIO
    TITLE "0:"
    INDEX 01 01:35:29
  TRACK 114 AUDIO
    TITLE "3:cjc153_1776"
    INDEX 01 01:35:61
  TRACK 115 AUDIO
    TITLE "0:"
    INDEX 01 01:37:13
